<svg width="530" height="256" viewBox="0 0 530 256" fill="none" xmlns="http://www.w3.org/2000/svg">
<style>
   :root {
   --primary: #000000; /* light mode default */
   }

   @media (prefers-color-scheme: dark) {
      :root {
         --primary: #ffffff; /* dark mode */
      }
   }

   .primary-stroke {
      stroke: var(--primary);
   }

   .primary-fill {
      filL: var(--primary);
   }
</style>
<g clip-path="url(#clip0_503_2)">
<path d="M308.205 215.737V9.44888H287.314" stroke="#66BB6A" stroke-width="0.845915" stroke-miterlimit="10"/>
<path d="M287.703 9.44892C287.703 4.46397 283.662 0.422978 278.677 0.422978C273.692 0.422978 269.651 4.46397 269.651 9.44892C269.651 14.4339 273.692 18.4749 278.677 18.4749C283.662 18.4749 287.703 14.4339 287.703 9.44892Z" stroke="#66BB6A" stroke-width="0.845915" stroke-miterlimit="10"/>
<path d="M172.817 215.737V9.44888H238.837" stroke="#66BB6A" stroke-width="0.845915" stroke-miterlimit="10"/>
<path d="M256.5 9.44892C256.5 4.46397 252.459 0.422977 247.474 0.422977C242.489 0.422977 238.448 4.46397 238.448 9.44892C238.448 14.4339 242.489 18.4749 247.474 18.4749C252.459 18.4749 256.5 14.4339 256.5 9.44892Z" stroke="#66BB6A" stroke-width="0.845915" stroke-miterlimit="10"/>
<path d="M426.399 81.5866L355.484 138.319" class="primary-stroke" stroke-width="0.845915" stroke-miterlimit="10"/>
<path d="M430.7 81.5866L501.615 138.319" class="primary-stroke" stroke-width="0.845915" stroke-miterlimit="10"/>
<path d="M473.679 215.737V79.8665H451.975" stroke="#66BB6A" stroke-width="0.845915" stroke-miterlimit="10"/>
<path d="M383.42 215.737V79.8665H405.124" stroke="#66BB6A" stroke-width="0.845915" stroke-miterlimit="10"/>
<path d="M452.364 79.8664C452.364 74.8814 448.323 70.8404 443.338 70.8404C438.353 70.8404 434.312 74.8814 434.312 79.8664C434.312 84.8513 438.353 88.8923 443.338 88.8923C448.323 88.8923 452.364 84.8513 452.364 79.8664Z" stroke="#66BB6A" stroke-width="0.845915" stroke-miterlimit="10"/>
<path d="M265.664 20.6352L408.415 72.545M425.962 78.9255L422.5 77.6667" class="primary-stroke" stroke-width="0.845915" stroke-miterlimit="10"/>
<path d="M422.788 79.8664C422.788 74.8814 418.747 70.8404 413.762 70.8404C408.777 70.8404 404.736 74.8814 404.736 79.8664C404.736 84.8513 408.777 88.8923 413.762 88.8923C418.747 88.8923 422.788 84.8513 422.788 79.8664Z" stroke="#66BB6A" stroke-width="0.845915" stroke-miterlimit="10"/>
<path d="M265.618 19.6943C265.618 18.2902 264.48 17.1519 263.076 17.1519C261.672 17.1519 260.534 18.2902 260.534 19.6943C260.534 21.0983 261.672 22.2366 263.076 22.2366C264.48 22.2366 265.618 21.0983 265.618 19.6943Z" class="primary-fill"/>
<path d="M245.216 5.73657C245.216 5.51782 245.216 5.17407 244.7 5.17407C244.481 5.17407 244.434 5.20532 244.294 5.34595C244.075 5.53345 243.637 5.95532 242.497 5.98657C242.294 5.98657 241.981 6.0647 241.981 6.39282C241.981 6.8147 242.387 6.8147 242.544 6.8147C242.887 6.8147 243.294 6.7522 243.637 6.65845V12.6428H242.731C242.575 12.6428 242.169 12.6428 242.169 13.0491C242.169 13.4709 242.575 13.4709 242.731 13.4709H246.028C246.153 13.4709 246.575 13.4709 246.575 13.0491C246.575 12.6428 246.153 12.6428 246.028 12.6428H245.216V5.73657ZM248.583 7.04907C248.677 7.1897 248.739 7.1897 248.755 7.1897C248.833 7.1897 248.864 7.14282 248.927 7.04907C249.505 6.20532 250.333 6.20532 250.489 6.20532C251.223 6.20532 251.333 6.59595 251.333 7.15845C251.333 7.33032 251.333 7.8772 250.973 8.3147C250.692 8.64282 250.395 8.65845 250.052 8.6897C249.927 8.70532 249.708 8.70532 249.677 8.73657C249.598 8.76782 249.598 8.84595 249.598 9.01782V9.23657C249.598 9.53345 249.598 9.54907 249.911 9.54907H250.411C251.473 9.54907 251.598 10.2053 251.598 11.0959C251.598 11.8772 251.52 12.6428 250.458 12.6428C250.083 12.6428 249.239 12.5491 248.458 11.8303C248.348 11.7209 248.348 11.7053 248.302 11.7053C248.177 11.7053 248.161 11.8147 248.145 11.8459C248.145 11.8459 248.005 12.5803 248.005 12.6428C248.005 12.7834 249.005 13.7209 250.52 13.7209C252.505 13.7209 253.302 12.6584 253.302 11.1272C253.302 10.0803 252.739 9.3772 251.692 9.11157C252.63 8.59595 252.942 7.84595 252.942 7.1897C252.942 5.33032 251.302 5.17407 250.536 5.17407C248.958 5.17407 248.177 6.3147 248.177 6.40845C248.177 6.47095 248.255 6.5647 248.255 6.58032L248.583 7.04907Z" fill="#66BB6A"/>
<path d="M273.059 12.4866C272.95 12.5959 272.95 12.6272 272.95 12.8303V12.9084C272.95 13.3303 273.075 13.4709 273.497 13.4709H277.466C277.919 13.4709 278.028 13.3147 278.028 12.9084V12.7834C278.028 12.5959 278.028 12.3772 277.778 12.2678C277.7 12.2209 277.341 12.2209 277.106 12.2209C276.841 12.2209 276.575 12.2366 276.309 12.2366H274.434L275.966 10.7834C276.137 10.6272 276.575 10.2678 276.762 10.1116C277.387 9.48657 278.028 8.8772 278.028 7.84595C278.028 6.42407 277.012 5.17407 275.309 5.17407C274.903 5.17407 274.247 5.23657 273.684 5.6897C273.591 5.76782 273.044 6.1897 272.841 6.97095L273.419 7.70532C273.497 7.79907 273.528 7.84595 273.606 7.84595C273.716 7.84595 273.731 7.76782 273.762 7.6272C273.997 6.83032 274.387 6.34595 275.137 6.34595C276.044 6.34595 276.403 7.15845 276.403 7.86157C276.403 8.61157 275.966 9.3772 275.278 10.1272L273.059 12.4866ZM281.145 6.59595H283.411C283.958 6.59595 283.973 6.33032 283.973 6.01782C283.973 5.72095 283.973 5.4397 283.411 5.4397H280.192C279.817 5.4397 279.645 5.5022 279.645 5.97095V9.51782C279.645 10.0334 279.911 10.0491 280.223 10.0491C280.52 10.0491 280.614 10.0491 280.786 9.76782C281.067 9.3147 281.458 9.08032 281.942 9.08032C282.692 9.08032 282.692 9.95532 282.692 10.8616C282.692 11.7522 282.692 12.6428 281.473 12.6428C281.114 12.6428 280.333 12.5334 279.864 11.6116C279.833 11.5491 279.802 11.4866 279.723 11.4866C279.63 11.4866 279.598 11.5334 279.536 11.6272C279.364 11.8928 279.098 12.2991 279.098 12.3772C279.098 12.4709 279.864 13.7209 281.52 13.7209C283.38 13.7209 284.395 12.7834 284.395 10.9084C284.395 9.3772 283.755 8.2522 281.989 8.2522C281.692 8.2522 281.427 8.29907 281.145 8.39282V6.59595Z" fill="#66BB6A"/>
<path d="M100.144 79.8665C100.144 78.4625 99.0062 77.3243 97.6021 77.3243C96.198 77.3243 95.0598 78.4625 95.0598 79.8665C95.0598 81.2707 96.198 82.4089 97.6021 82.4089C99.0062 82.4089 100.144 81.2707 100.144 79.8665Z" class="primary-fill"/>
<path d="M80.0867 80.8538C79.9929 81.0256 79.9929 81.0569 79.9929 81.2756V81.5569C79.9929 81.9319 80.071 82.1194 80.5554 82.1194H83.1492V83.3225C83.1492 83.6975 83.2273 83.885 83.7117 83.885H84.0398C84.4773 83.885 84.5867 83.7288 84.5867 83.3225V82.1194H85.071C85.4304 82.1194 85.6335 82.0256 85.6335 81.5725C85.6335 81.135 85.4773 81.0256 85.071 81.0256H84.5867V76.4006C84.5867 75.9944 84.4617 75.8538 84.0398 75.8538H83.1804C82.9617 75.8538 82.7898 75.8538 82.6492 76.1194L80.0867 80.8538ZM81.196 81.0256C83.0554 77.6194 83.1492 77.26 83.2117 77.0725H83.2273V81.0256H81.196Z" fill="#66BB6A"/>
<path d="M113.411 80.3538C113.395 80.4631 113.411 80.6819 113.38 81.1819C113.317 81.885 113.114 83.0569 111.833 83.0569C111.473 83.0569 111.145 82.9631 110.833 82.6663C110.77 82.6038 110.739 82.5725 110.677 82.5725C110.583 82.5725 110.567 82.635 110.505 82.7288C110.286 83.1038 110.13 83.3694 110.13 83.4319C110.13 83.5256 110.723 84.135 111.864 84.135C115.036 84.135 115.036 80.8069 115.036 79.76C115.036 78.5256 115.02 75.5881 112.395 75.5881C111.677 75.5881 110.911 75.7288 110.302 76.4631C109.817 77.1038 109.739 77.6819 109.739 78.5725C109.739 79.3069 109.77 79.9631 110.255 80.6194C110.723 81.2288 111.255 81.4006 112.005 81.4006C112.848 81.4006 113.255 80.7131 113.411 80.3538ZM112.286 80.5569C111.364 80.5569 111.364 79.7288 111.364 78.5881C111.364 77.4631 111.364 76.6194 112.411 76.6194C113.208 76.6194 113.395 77.51 113.395 78.7288C113.395 78.9006 113.395 80.5569 112.286 80.5569Z" fill="#66BB6A"/>
<path d="M250.575 79.8665C250.575 78.4625 249.437 77.3243 248.033 77.3243C246.629 77.3243 245.491 78.4625 245.491 79.8665C245.491 81.2707 246.629 82.4089 248.033 82.4089C249.437 82.4089 250.575 81.2707 250.575 79.8665Z" class="primary-fill"/>
<path d="M237.005 76.1506C237.005 75.9319 237.005 75.5881 236.489 75.5881C236.27 75.5881 236.223 75.6194 236.083 75.76C235.864 75.9475 235.427 76.3694 234.286 76.4006C234.083 76.4006 233.77 76.4788 233.77 76.8069C233.77 77.2288 234.177 77.2288 234.333 77.2288C234.677 77.2288 235.083 77.1663 235.427 77.0725V83.0569H234.52C234.364 83.0569 233.958 83.0569 233.958 83.4631C233.958 83.885 234.364 83.885 234.52 83.885H237.817C237.942 83.885 238.364 83.885 238.364 83.4631C238.364 83.0569 237.942 83.0569 237.817 83.0569H237.005V76.1506ZM243.669 79.5569C244.778 79.1819 244.919 78.3694 244.919 77.8538C244.919 76.1506 243.825 75.5881 242.45 75.5881C241.184 75.5881 239.966 76.0413 239.966 77.8538C239.966 78.4631 240.184 79.2131 241.216 79.5569C240.028 79.885 239.794 80.8069 239.794 81.5413C239.794 83.3381 240.762 84.135 242.434 84.135C244.184 84.135 245.091 83.2756 245.091 81.5413C245.091 80.4788 244.591 79.8225 243.669 79.5569ZM242.45 79.1194C241.481 79.1194 241.45 78.5569 241.45 77.8694C241.45 77.0725 241.512 76.6194 242.434 76.6194C243.356 76.6194 243.434 77.0413 243.434 77.8694C243.434 78.5413 243.419 79.1194 242.45 79.1194ZM242.45 83.0569C241.434 83.0569 241.403 82.4006 241.403 81.51C241.403 80.76 241.403 79.9631 242.434 79.9631C243.481 79.9631 243.481 80.7444 243.481 81.51C243.481 82.385 243.45 83.0569 242.45 83.0569Z" fill="#66BB6A"/>
<path d="M431.092 79.8665C431.092 78.4625 429.954 77.3243 428.55 77.3243C427.146 77.3243 426.008 78.4625 426.008 79.8665C426.008 81.2707 427.146 82.4089 428.55 82.4089C429.954 82.4089 431.092 81.2707 431.092 79.8665Z" class="primary-fill"/>
<path d="M437.419 80.8538C437.325 81.0256 437.325 81.0569 437.325 81.2756V81.5569C437.325 81.9319 437.403 82.1194 437.888 82.1194H440.481V83.3225C440.481 83.6975 440.56 83.885 441.044 83.885H441.372C441.81 83.885 441.919 83.7288 441.919 83.3225V82.1194H442.403C442.763 82.1194 442.966 82.0256 442.966 81.5725C442.966 81.135 442.81 81.0256 442.403 81.0256H441.919V76.4006C441.919 75.9944 441.794 75.8538 441.372 75.8538H440.513C440.294 75.8538 440.122 75.8538 439.981 76.1194L437.419 80.8538ZM438.528 81.0256C440.388 77.6194 440.481 77.26 440.544 77.0725H440.56V81.0256H438.528ZM447.587 77.0881C444.993 79.9475 444.993 82.8694 444.993 83.4631C444.993 83.8225 445.071 84.01 445.556 84.01H446.087C446.259 84.01 446.634 84.01 446.634 83.5569C446.665 80.6819 447.681 78.5881 449.071 76.8381C449.165 76.7288 449.165 76.635 449.165 76.4319C449.165 76.1663 449.165 75.8538 448.681 75.8538C448.274 75.8381 445.946 75.8381 445.384 75.8381H444.649C444.103 75.8381 443.868 75.8381 443.868 76.4006V76.5413C443.868 76.7288 443.868 76.9475 444.118 77.0569C444.196 77.1038 444.571 77.1038 444.821 77.1038C445.087 77.1038 445.368 77.0881 445.634 77.0881L447.587 77.0881Z" fill="#66BB6A"/>
<path d="M407.845 80.8538C407.751 81.0256 407.751 81.0569 407.751 81.2756V81.5569C407.751 81.9319 407.829 82.1194 408.313 82.1194H410.907V83.3225C410.907 83.6975 410.985 83.885 411.47 83.885H411.798C412.235 83.885 412.345 83.7288 412.345 83.3225V82.1194H412.829C413.188 82.1194 413.392 82.0256 413.392 81.5725C413.392 81.135 413.235 81.0256 412.829 81.0256H412.345V76.4006C412.345 75.9944 412.22 75.8538 411.798 75.8538H410.938C410.72 75.8538 410.548 75.8538 410.407 76.1194L407.845 80.8538ZM408.954 81.0256C410.813 77.6194 410.907 77.26 410.97 77.0725H410.985V81.0256H408.954ZM414.509 82.9006C414.399 83.01 414.399 83.0413 414.399 83.2444V83.3225C414.399 83.7444 414.524 83.885 414.946 83.885H418.915C419.368 83.885 419.478 83.7288 419.478 83.3225V83.1975C419.478 83.01 419.478 82.7913 419.228 82.6819C419.149 82.635 418.79 82.635 418.556 82.635C418.29 82.635 418.024 82.6506 417.759 82.6506H415.884L417.415 81.1975C417.587 81.0413 418.024 80.6819 418.212 80.5256C418.837 79.9006 419.478 79.2913 419.478 78.26C419.478 76.8381 418.462 75.5881 416.759 75.5881C416.353 75.5881 415.696 75.6506 415.134 76.1038C415.04 76.1819 414.493 76.6038 414.29 77.385L414.868 78.1194C414.946 78.2131 414.978 78.26 415.056 78.26C415.165 78.26 415.181 78.1819 415.212 78.0413C415.446 77.2444 415.837 76.76 416.587 76.76C417.493 76.76 417.853 77.5725 417.853 78.2756C417.853 79.0256 417.415 79.7913 416.728 80.5413L414.509 82.9006Z" fill="#66BB6A"/>
<path d="M260.488 20.6352L100.19 78.9255" class="primary-stroke" stroke-width="0.845915" stroke-miterlimit="10"/>
<path d="M262.408 22.3657L248.701 77.1949" class="primary-stroke" stroke-width="0.845915" stroke-miterlimit="10"/>
<path d="M24.9291 140.039C24.9291 138.635 23.7909 137.497 22.3867 137.497C20.9826 137.497 19.8445 138.635 19.8445 140.039C19.8445 141.443 20.9826 142.581 22.3867 142.581C23.7909 142.581 24.9291 141.443 24.9291 140.039Z" class="primary-fill"/>
<path d="M11.1843 143.073C11.075 143.182 11.075 143.213 11.075 143.416V143.494C11.075 143.916 11.2 144.057 11.6218 144.057H15.5906C16.0437 144.057 16.1531 143.901 16.1531 143.494V143.369C16.1531 143.182 16.1531 142.963 15.9031 142.854C15.825 142.807 15.4656 142.807 15.2312 142.807C14.9656 142.807 14.7 142.823 14.4343 142.823H12.5593L14.0906 141.369C14.2625 141.213 14.7 140.854 14.8875 140.698C15.5125 140.073 16.1531 139.463 16.1531 138.432C16.1531 137.01 15.1375 135.76 13.4343 135.76C13.0281 135.76 12.3718 135.823 11.8093 136.276C11.7156 136.354 11.1687 136.776 10.9656 137.557L11.5437 138.291C11.6218 138.385 11.6531 138.432 11.7312 138.432C11.8406 138.432 11.8562 138.354 11.8875 138.213C12.1218 137.416 12.5125 136.932 13.2625 136.932C14.1687 136.932 14.5281 137.744 14.5281 138.448C14.5281 139.198 14.0906 139.963 13.4031 140.713L11.1843 143.073Z" fill="#66BB6A"/>
<path d="M85.1015 140.039C85.1015 138.635 83.9632 137.497 82.5592 137.497C81.1551 137.497 80.0168 138.635 80.0168 140.039C80.0168 141.443 81.1551 142.581 82.5592 142.581C83.9632 142.581 85.1015 141.443 85.1015 140.039Z" class="primary-fill"/>
<path d="M75.6062 136.323C75.6062 136.041 75.6062 136.026 75.2 135.885C74.9031 135.76 74.5906 135.76 74.4656 135.76C71.1375 135.76 71.1375 139.104 71.1375 140.119C71.1375 141.307 71.1375 144.307 73.8406 144.307C74.7312 144.307 75.2781 144.088 75.7625 143.557C76.3562 142.885 76.4343 142.229 76.4343 141.323C76.4343 140.666 76.4343 138.51 74.1687 138.51C73.5281 138.51 73.075 138.869 72.7625 139.541C72.825 138.494 72.825 138.244 72.9968 137.776C73.3406 136.901 74.1062 136.791 74.5125 136.791C74.7156 136.791 75.0125 136.838 75.2937 136.979C75.3718 137.041 75.4187 137.057 75.4656 137.057C75.6062 137.057 75.6062 136.932 75.6062 136.744V136.323ZM73.825 143.229C72.9031 143.229 72.7781 142.182 72.7781 141.182C72.7781 140.229 73.0593 139.338 73.8875 139.338C74.8093 139.338 74.8093 140.166 74.8093 141.307C74.8093 142.448 74.8093 143.229 73.825 143.229Z" fill="#66BB6A"/>
<path d="M145.274 140.039C145.274 138.635 144.136 137.497 142.731 137.497C141.327 137.497 140.189 138.635 140.189 140.039C140.189 141.443 141.327 142.581 142.731 142.581C144.136 142.581 145.274 141.443 145.274 140.039Z" class="primary-fill"/>
<path d="M131.704 136.323C131.704 136.104 131.704 135.76 131.188 135.76C130.969 135.76 130.923 135.791 130.782 135.932C130.563 136.119 130.126 136.541 128.985 136.573C128.782 136.573 128.469 136.651 128.469 136.979C128.469 137.401 128.876 137.401 129.032 137.401C129.376 137.401 129.782 137.338 130.126 137.244V143.229H129.219C129.063 143.229 128.657 143.229 128.657 143.635C128.657 144.057 129.063 144.057 129.219 144.057H132.516C132.641 144.057 133.063 144.057 133.063 143.635C133.063 143.229 132.641 143.229 132.516 143.229H131.704V136.323ZM134.712 143.073C134.602 143.182 134.602 143.213 134.602 143.416V143.494C134.602 143.916 134.727 144.057 135.149 144.057H139.118C139.571 144.057 139.68 143.901 139.68 143.494V143.369C139.68 143.182 139.68 142.963 139.43 142.854C139.352 142.807 138.993 142.807 138.759 142.807C138.493 142.807 138.227 142.823 137.962 142.823H136.087L137.618 141.369C137.79 141.213 138.227 140.854 138.415 140.698C139.04 140.073 139.68 139.463 139.68 138.432C139.68 137.01 138.665 135.76 136.962 135.76C136.555 135.76 135.899 135.823 135.337 136.276C135.243 136.354 134.696 136.776 134.493 137.557L135.071 138.291C135.149 138.385 135.18 138.432 135.259 138.432C135.368 138.432 135.384 138.354 135.415 138.213C135.649 137.416 136.04 136.932 136.79 136.932C137.696 136.932 138.055 137.744 138.055 138.448C138.055 139.198 137.618 139.963 136.93 140.713L134.712 143.073Z" fill="#66BB6A"/>
<path d="M205.446 140.039C205.446 138.635 204.308 137.497 202.904 137.497C201.5 137.497 200.361 138.635 200.361 140.039C200.361 141.443 201.5 142.581 202.904 142.581C204.308 142.581 205.446 141.443 205.446 140.039Z" class="primary-fill"/>
<path d="M191.876 136.323C191.876 136.104 191.876 135.76 191.36 135.76C191.141 135.76 191.094 135.791 190.954 135.932C190.735 136.119 190.298 136.541 189.157 136.573C188.954 136.573 188.641 136.651 188.641 136.979C188.641 137.401 189.048 137.401 189.204 137.401C189.548 137.401 189.954 137.338 190.298 137.244V143.229H189.391C189.235 143.229 188.829 143.229 188.829 143.635C188.829 144.057 189.235 144.057 189.391 144.057H192.688C192.813 144.057 193.235 144.057 193.235 143.635C193.235 143.229 192.813 143.229 192.688 143.229H191.876V136.323ZM196.602 137.182H198.868C199.415 137.182 199.43 136.916 199.43 136.604C199.43 136.307 199.43 136.026 198.868 136.026H195.649C195.274 136.026 195.102 136.088 195.102 136.557V140.104C195.102 140.619 195.368 140.635 195.68 140.635C195.977 140.635 196.071 140.635 196.243 140.354C196.524 139.901 196.915 139.666 197.399 139.666C198.149 139.666 198.149 140.541 198.149 141.448C198.149 142.338 198.149 143.229 196.93 143.229C196.571 143.229 195.79 143.119 195.321 142.198C195.29 142.135 195.259 142.073 195.18 142.073C195.087 142.073 195.055 142.119 194.993 142.213C194.821 142.479 194.555 142.885 194.555 142.963C194.555 143.057 195.321 144.307 196.977 144.307C198.837 144.307 199.852 143.369 199.852 141.494C199.852 139.963 199.212 138.838 197.446 138.838C197.149 138.838 196.884 138.885 196.602 138.979V137.182Z" fill="#66BB6A"/>
<path d="M265.618 140.039C265.618 138.635 264.48 137.497 263.076 137.497C261.672 137.497 260.534 138.635 260.534 140.039C260.534 141.443 261.672 142.581 263.076 142.581C264.48 142.581 265.618 141.443 265.618 140.039Z" class="primary-fill"/>
<path d="M248.688 143.073C248.579 143.182 248.579 143.213 248.579 143.416V143.494C248.579 143.916 248.704 144.057 249.126 144.057H253.094C253.548 144.057 253.657 143.901 253.657 143.494V143.369C253.657 143.182 253.657 142.963 253.407 142.854C253.329 142.807 252.969 142.807 252.735 142.807C252.469 142.807 252.204 142.823 251.938 142.823H250.063L251.594 141.369C251.766 141.213 252.204 140.854 252.391 140.698C253.016 140.073 253.657 139.463 253.657 138.432C253.657 137.01 252.641 135.76 250.938 135.76C250.532 135.76 249.876 135.823 249.313 136.276C249.219 136.354 248.673 136.776 248.469 137.557L249.048 138.291C249.126 138.385 249.157 138.432 249.235 138.432C249.344 138.432 249.36 138.354 249.391 138.213C249.626 137.416 250.016 136.932 250.766 136.932C251.673 136.932 252.032 137.744 252.032 138.448C252.032 139.198 251.594 139.963 250.907 140.713L248.688 143.073ZM260.165 140.088C260.165 138.494 260.165 135.76 257.493 135.76C254.805 135.76 254.805 138.479 254.805 140.088C254.805 141.666 254.805 144.307 257.477 144.307C260.165 144.307 260.165 141.698 260.165 140.088ZM257.477 143.479C256.618 143.479 256.493 142.416 256.462 142.104C256.384 141.479 256.384 140.401 256.384 139.916C256.384 139.244 256.384 138.494 256.446 137.932C256.477 137.619 256.602 136.604 257.477 136.604C258.337 136.604 258.477 137.573 258.509 137.807C258.587 138.401 258.587 139.307 258.587 139.916C258.587 140.588 258.587 141.479 258.509 142.119C258.477 142.432 258.352 143.479 257.477 143.479Z" fill="#66BB6A"/>
<path d="M355.877 140.039C355.877 138.635 354.739 137.497 353.335 137.497C351.931 137.497 350.792 138.635 350.792 140.039C350.792 141.443 351.931 142.581 353.335 142.581C354.739 142.581 355.877 141.443 355.877 140.039Z" class="primary-fill"/>
<path d="M339.302 137.635C339.396 137.776 339.458 137.776 339.474 137.776C339.552 137.776 339.583 137.729 339.646 137.635C340.224 136.791 341.052 136.791 341.208 136.791C341.942 136.791 342.052 137.182 342.052 137.744C342.052 137.916 342.052 138.463 341.692 138.901C341.411 139.229 341.114 139.244 340.771 139.276C340.646 139.291 340.427 139.291 340.396 139.323C340.317 139.354 340.317 139.432 340.317 139.604V139.823C340.317 140.119 340.317 140.135 340.63 140.135H341.13C342.192 140.135 342.317 140.791 342.317 141.682C342.317 142.463 342.239 143.229 341.177 143.229C340.802 143.229 339.958 143.135 339.177 142.416C339.067 142.307 339.067 142.291 339.021 142.291C338.896 142.291 338.88 142.401 338.864 142.432C338.864 142.432 338.724 143.166 338.724 143.229C338.724 143.369 339.724 144.307 341.239 144.307C343.224 144.307 344.021 143.244 344.021 141.713C344.021 140.666 343.458 139.963 342.411 139.698C343.349 139.182 343.661 138.432 343.661 137.776C343.661 135.916 342.021 135.76 341.255 135.76C339.677 135.76 338.896 136.901 338.896 136.994C338.896 137.057 338.974 137.151 338.974 137.166L339.302 137.635ZM345.673 137.635C345.767 137.776 345.829 137.776 345.845 137.776C345.923 137.776 345.954 137.729 346.017 137.635C346.595 136.791 347.423 136.791 347.579 136.791C348.313 136.791 348.423 137.182 348.423 137.744C348.423 137.916 348.423 138.463 348.063 138.901C347.782 139.229 347.485 139.244 347.142 139.276C347.017 139.291 346.798 139.291 346.767 139.323C346.688 139.354 346.688 139.432 346.688 139.604V139.823C346.688 140.119 346.688 140.135 347.001 140.135H347.501C348.563 140.135 348.688 140.791 348.688 141.682C348.688 142.463 348.61 143.229 347.548 143.229C347.173 143.229 346.329 143.135 345.548 142.416C345.438 142.307 345.438 142.291 345.392 142.291C345.267 142.291 345.251 142.401 345.235 142.432C345.235 142.432 345.095 143.166 345.095 143.229C345.095 143.369 346.095 144.307 347.61 144.307C349.595 144.307 350.392 143.244 350.392 141.713C350.392 140.666 349.829 139.963 348.782 139.698C349.72 139.182 350.032 138.432 350.032 137.776C350.032 135.916 348.392 135.76 347.626 135.76C346.048 135.76 345.267 136.901 345.267 136.994C345.267 137.057 345.345 137.151 345.345 137.166L345.673 137.635Z" fill="#66BB6A"/>
<path d="M431.092 140.039C431.092 138.635 429.954 137.497 428.55 137.497C427.146 137.497 426.008 138.635 426.008 140.039C426.008 141.443 427.146 142.581 428.55 142.581C429.954 142.581 431.092 141.443 431.092 140.039Z" class="primary-fill"/>
<path d="M410.04 132.283C409.946 132.455 409.946 132.487 409.946 132.705V132.987C409.946 133.362 410.024 133.549 410.509 133.549H413.103V134.752C413.103 135.127 413.181 135.315 413.665 135.315H413.993C414.431 135.315 414.54 135.158 414.54 134.752V133.549H415.024C415.384 133.549 415.587 133.455 415.587 133.002C415.587 132.565 415.431 132.455 415.024 132.455H414.54V127.83C414.54 127.424 414.415 127.283 413.993 127.283H413.134C412.915 127.283 412.743 127.283 412.603 127.549L410.04 132.283ZM411.149 132.455C413.009 129.049 413.103 128.69 413.165 128.502H413.181V132.455H411.149ZM418.423 128.44H420.688C421.235 128.44 421.251 128.174 421.251 127.862C421.251 127.565 421.251 127.283 420.688 127.283H417.47C417.095 127.283 416.923 127.346 416.923 127.815V131.362C416.923 131.877 417.188 131.893 417.501 131.893C417.798 131.893 417.892 131.893 418.063 131.612C418.345 131.158 418.735 130.924 419.22 130.924C419.97 130.924 419.97 131.799 419.97 132.705C419.97 133.596 419.97 134.487 418.751 134.487C418.392 134.487 417.61 134.377 417.142 133.455C417.11 133.393 417.079 133.33 417.001 133.33C416.907 133.33 416.876 133.377 416.813 133.471C416.642 133.737 416.376 134.143 416.376 134.221C416.376 134.315 417.142 135.565 418.798 135.565C420.657 135.565 421.673 134.627 421.673 132.752C421.673 131.221 421.032 130.096 419.267 130.096C418.97 130.096 418.704 130.143 418.423 130.237V128.44Z" fill="#66BB6A"/>
<path d="M435.228 132.283C435.134 132.455 435.134 132.487 435.134 132.705V132.987C435.134 133.362 435.212 133.549 435.696 133.549H438.29V134.752C438.29 135.127 438.368 135.315 438.853 135.315H439.181C439.618 135.315 439.728 135.158 439.728 134.752V133.549H440.212C440.571 133.549 440.774 133.455 440.774 133.002C440.774 132.565 440.618 132.455 440.212 132.455H439.728V127.83C439.728 127.424 439.603 127.283 439.181 127.283H438.321C438.103 127.283 437.931 127.283 437.79 127.549L435.228 132.283ZM436.337 132.455C438.196 129.049 438.29 128.69 438.353 128.502H438.368V132.455H436.337ZM446.142 127.58C446.142 127.299 446.142 127.283 445.735 127.143C445.438 127.018 445.126 127.018 445.001 127.018C441.673 127.018 441.673 130.362 441.673 131.377C441.673 132.565 441.673 135.565 444.376 135.565C445.267 135.565 445.813 135.346 446.298 134.815C446.892 134.143 446.97 133.487 446.97 132.58C446.97 131.924 446.97 129.768 444.704 129.768C444.063 129.768 443.61 130.127 443.298 130.799C443.36 129.752 443.36 129.502 443.532 129.033C443.876 128.158 444.642 128.049 445.048 128.049C445.251 128.049 445.548 128.096 445.829 128.237C445.907 128.299 445.954 128.315 446.001 128.315C446.142 128.315 446.142 128.19 446.142 128.002V127.58ZM444.36 134.487C443.438 134.487 443.313 133.44 443.313 132.44C443.313 131.487 443.595 130.596 444.423 130.596C445.345 130.596 445.345 131.424 445.345 132.565C445.345 133.705 445.345 134.487 444.36 134.487Z" fill="#66BB6A"/>
<path d="M506.308 140.039C506.308 138.635 505.17 137.497 503.766 137.497C502.361 137.497 501.223 138.635 501.223 140.039C501.223 141.443 502.361 142.581 503.766 142.581C505.17 142.581 506.308 141.443 506.308 140.039Z" class="primary-fill"/>
<path d="M491.091 137.182H493.356C493.903 137.182 493.919 136.916 493.919 136.604C493.919 136.307 493.919 136.026 493.356 136.026H490.138C489.763 136.026 489.591 136.088 489.591 136.557V140.104C489.591 140.619 489.856 140.635 490.169 140.635C490.466 140.635 490.56 140.635 490.731 140.354C491.013 139.901 491.403 139.666 491.888 139.666C492.638 139.666 492.638 140.541 492.638 141.448C492.638 142.338 492.638 143.229 491.419 143.229C491.06 143.229 490.278 143.119 489.81 142.198C489.778 142.135 489.747 142.073 489.669 142.073C489.575 142.073 489.544 142.119 489.481 142.213C489.31 142.479 489.044 142.885 489.044 142.963C489.044 143.057 489.81 144.307 491.466 144.307C493.325 144.307 494.341 143.369 494.341 141.494C494.341 139.963 493.7 138.838 491.935 138.838C491.638 138.838 491.372 138.885 491.091 138.979V137.182ZM499.099 136.323C499.099 136.104 499.099 135.76 498.583 135.76C498.364 135.76 498.317 135.791 498.177 135.932C497.958 136.119 497.521 136.541 496.38 136.573C496.177 136.573 495.864 136.651 495.864 136.979C495.864 137.401 496.271 137.401 496.427 137.401C496.771 137.401 497.177 137.338 497.521 137.244V143.229H496.614C496.458 143.229 496.052 143.229 496.052 143.635C496.052 144.057 496.458 144.057 496.614 144.057H499.911C500.036 144.057 500.458 144.057 500.458 143.635C500.458 143.229 500.036 143.229 499.911 143.229H499.099V136.323Z" fill="#66BB6A"/>
<path d="M95.4519 81.5868L24.5369 138.319" class="primary-stroke" stroke-width="0.845915" stroke-miterlimit="10"/>
<path d="M96.9342 82.5381L83.2268 137.367" class="primary-stroke" stroke-width="0.845915" stroke-miterlimit="10"/>
<path d="M99.2544 82.0695L141.079 137.836" class="primary-stroke" stroke-width="0.845915" stroke-miterlimit="10"/>
<path d="M246.381 82.0695L204.556 137.836" class="primary-stroke" stroke-width="0.845915" stroke-miterlimit="10"/>
<path d="M248.701 82.5381L262.408 137.367" class="primary-stroke" stroke-width="0.845915" stroke-miterlimit="10"/>
<path d="M428.55 82.6203V137.285" class="primary-stroke" stroke-width="0.845915" stroke-miterlimit="10"/>
<path d="M8.83907 200.211C8.83907 199.385 8.16961 198.716 7.34361 198.716C6.51774 198.716 5.84814 199.385 5.84814 200.211C5.84814 201.037 6.51774 201.707 7.34361 201.707C8.16961 201.707 8.83907 201.037 8.83907 200.211Z" class="primary-fill"/>
<path d="M7.86011 204.256C7.86011 203.975 7.86011 203.944 7.59448 203.944C6.87573 204.694 5.86011 204.694 5.48511 204.694V205.053C5.71948 205.053 6.39136 205.053 7.00073 204.756V210.74C7.00073 211.162 6.96948 211.303 5.92261 211.303H5.54761V211.662C5.95386 211.631 6.96948 211.631 7.42261 211.631C7.89136 211.631 8.90698 211.631 9.29761 211.662V211.303H8.93823C7.89136 211.303 7.86011 211.178 7.86011 210.74V204.256Z" class="primary-fill"/>
<path d="M38.9254 200.211C38.9254 199.385 38.2558 198.716 37.4298 198.716C36.6039 198.716 35.9343 199.385 35.9343 200.211C35.9343 201.037 36.6039 201.707 37.4298 201.707C38.2558 201.707 38.9254 201.037 38.9254 200.211Z" class="primary-fill"/>
<path d="M37.9421 209.756V210.756C37.9421 211.178 37.9109 211.303 37.0671 211.303H36.8171V211.662C37.2859 211.631 37.8953 211.631 38.3796 211.631C38.864 211.631 39.4734 211.631 39.9578 211.662V211.303H39.7078C38.8484 211.303 38.8328 211.178 38.8328 210.756V209.756H39.989V209.397H38.8328V204.131C38.8328 203.897 38.8328 203.819 38.6453 203.819C38.5359 203.819 38.5046 203.819 38.4109 203.959L34.864 209.397V209.756H37.9421ZM38.0046 209.397H35.1765L38.0046 205.069V209.397Z" class="primary-fill"/>
<path d="M69.0116 200.211C69.0116 199.385 68.342 198.716 67.5161 198.716C66.6901 198.716 66.0205 199.385 66.0205 200.211C66.0205 201.037 66.6901 201.707 67.5161 201.707C68.342 201.707 69.0116 201.037 69.0116 200.211Z" class="primary-fill"/>
<path d="M69.8289 209.334C69.8289 207.959 68.8757 206.803 67.6257 206.803C67.0632 206.803 66.5632 206.99 66.157 207.397V205.131C66.3914 205.209 66.7664 205.287 67.1414 205.287C68.5632 205.287 69.3757 204.225 69.3757 204.084C69.3757 204.006 69.3445 203.944 69.2507 203.944C69.2507 203.944 69.2195 203.944 69.157 203.99C68.9382 204.084 68.3601 204.319 67.5945 204.319C67.1257 204.319 66.5945 204.24 66.0476 203.99C65.9539 203.959 65.9382 203.959 65.907 203.959C65.7976 203.959 65.7976 204.053 65.7976 204.24V207.662C65.7976 207.881 65.7976 207.975 65.9539 207.975C66.032 207.975 66.0632 207.928 66.1101 207.865C66.2351 207.678 66.657 207.053 67.5945 207.053C68.2039 207.053 68.4851 207.584 68.5789 207.803C68.7664 208.225 68.7976 208.678 68.7976 209.256C68.7976 209.662 68.7976 210.35 68.5164 210.834C68.2351 211.287 67.8132 211.6 67.282 211.6C66.4382 211.6 65.7664 210.975 65.5789 210.303C65.6101 210.303 65.6414 210.319 65.7664 210.319C66.157 210.319 66.3445 210.037 66.3445 209.756C66.3445 209.475 66.157 209.178 65.7664 209.178C65.6101 209.178 65.2039 209.272 65.2039 209.803C65.2039 210.787 66.0007 211.912 67.2976 211.912C68.6414 211.912 69.8289 210.803 69.8289 209.334Z" class="primary-fill"/>
<path d="M99.0976 200.211C99.0976 199.385 98.428 198.716 97.6022 198.716C96.7762 198.716 96.1067 199.385 96.1067 200.211C96.1067 201.037 96.7762 201.707 97.6022 201.707C98.428 201.707 99.0976 201.037 99.0976 200.211Z" class="primary-fill"/>
<path d="M96.5984 206.365C96.0671 206.022 96.0203 205.631 96.0203 205.428C96.0203 204.725 96.7703 204.24 97.5984 204.24C98.4421 204.24 99.1765 204.85 99.1765 205.678C99.1765 206.334 98.7234 206.897 98.0359 207.303L96.5984 206.365ZM98.2859 207.475C99.114 207.037 99.6921 206.444 99.6921 205.678C99.6921 204.615 98.6609 203.944 97.5984 203.944C96.4421 203.944 95.5046 204.803 95.5046 205.881C95.5046 206.1 95.5359 206.615 96.0203 207.162C96.1453 207.303 96.5671 207.584 96.864 207.787C96.1921 208.115 95.1921 208.772 95.1921 209.912C95.1921 211.147 96.3796 211.912 97.5984 211.912C98.8953 211.912 100.005 210.959 100.005 209.725C100.005 209.303 99.864 208.772 99.4265 208.287C99.2078 208.053 99.0203 207.928 98.2859 207.475ZM97.1296 207.959L98.5515 208.865C98.8796 209.084 99.4265 209.428 99.4265 210.131C99.4265 210.99 98.5515 211.6 97.5984 211.6C96.614 211.6 95.7703 210.881 95.7703 209.912C95.7703 209.24 96.1453 208.506 97.1296 207.959Z" class="primary-fill"/>
<path d="M129.184 200.211C129.184 199.385 128.514 198.716 127.688 198.716C126.862 198.716 126.193 199.385 126.193 200.211C126.193 201.037 126.862 201.707 127.688 201.707C128.514 201.707 129.184 201.037 129.184 200.211Z" class="primary-fill"/>
<path d="M125.305 204.256C125.305 203.975 125.305 203.944 125.04 203.944C124.321 204.694 123.305 204.694 122.93 204.694V205.053C123.165 205.053 123.837 205.053 124.446 204.756V210.74C124.446 211.162 124.415 211.303 123.368 211.303H122.993V211.662C123.399 211.631 124.415 211.631 124.868 211.631C125.337 211.631 126.352 211.631 126.743 211.662V211.303H126.384C125.337 211.303 125.305 211.178 125.305 210.74V204.256ZM133.016 207.959C133.016 207.037 132.954 206.1 132.548 205.24C132.016 204.131 131.063 203.944 130.579 203.944C129.891 203.944 129.048 204.256 128.563 205.334C128.204 206.131 128.141 207.037 128.141 207.959C128.141 208.819 128.188 209.865 128.657 210.74C129.157 211.678 130.001 211.912 130.579 211.912C131.204 211.912 132.079 211.678 132.579 210.569C132.954 209.772 133.016 208.865 133.016 207.959ZM130.579 211.662C130.126 211.662 129.438 211.365 129.235 210.256C129.094 209.569 129.094 208.506 129.094 207.819C129.094 207.084 129.094 206.319 129.188 205.694C129.407 204.303 130.282 204.209 130.579 204.209C130.954 204.209 131.719 204.412 131.938 205.553C132.048 206.209 132.048 207.084 132.048 207.819C132.048 208.694 132.048 209.475 131.923 210.209C131.751 211.319 131.094 211.662 130.579 211.662Z" class="primary-fill"/>
<path d="M159.27 200.211C159.27 199.385 158.601 198.716 157.775 198.716C156.949 198.716 156.279 199.385 156.279 200.211C156.279 201.037 156.949 201.707 157.775 201.707C158.601 201.707 159.27 201.037 159.27 200.211Z" class="primary-fill"/>
<path d="M155.391 204.256C155.391 203.975 155.391 203.944 155.126 203.944C154.407 204.694 153.391 204.694 153.016 204.694V205.053C153.251 205.053 153.923 205.053 154.532 204.756V210.74C154.532 211.162 154.501 211.303 153.454 211.303H153.079V211.662C153.485 211.631 154.501 211.631 154.954 211.631C155.423 211.631 156.438 211.631 156.829 211.662V211.303H156.469C155.423 211.303 155.391 211.178 155.391 210.74V204.256ZM161.134 207.584C162.087 207.272 162.759 206.459 162.759 205.553C162.759 204.6 161.727 203.944 160.618 203.944C159.446 203.944 158.571 204.647 158.571 205.522C158.571 205.912 158.821 206.131 159.165 206.131C159.524 206.131 159.759 205.881 159.759 205.537C159.759 204.959 159.212 204.959 159.04 204.959C159.399 204.397 160.165 204.24 160.571 204.24C161.055 204.24 161.68 204.49 161.68 205.537C161.68 205.678 161.665 206.35 161.368 206.85C161.009 207.412 160.618 207.444 160.337 207.459C160.243 207.475 159.962 207.49 159.884 207.49C159.79 207.506 159.712 207.522 159.712 207.631C159.712 207.756 159.79 207.756 159.993 207.756H160.493C161.446 207.756 161.868 208.553 161.868 209.678C161.868 211.256 161.071 211.6 160.571 211.6C160.071 211.6 159.196 211.397 158.79 210.709C159.196 210.772 159.555 210.522 159.555 210.069C159.555 209.662 159.243 209.428 158.915 209.428C158.634 209.428 158.259 209.584 158.259 210.1C158.259 211.147 159.337 211.912 160.602 211.912C162.009 211.912 163.071 210.865 163.071 209.678C163.071 208.74 162.337 207.834 161.134 207.584Z" class="primary-fill"/>
<path d="M189.356 200.211C189.356 199.385 188.687 198.716 187.861 198.716C187.035 198.716 186.365 199.385 186.365 200.211C186.365 201.037 187.035 201.707 187.861 201.707C188.687 201.707 189.356 201.037 189.356 200.211Z" class="primary-fill"/>
<path d="M185.477 204.256C185.477 203.975 185.477 203.944 185.212 203.944C184.493 204.694 183.477 204.694 183.102 204.694V205.053C183.337 205.053 184.009 205.053 184.618 204.756V210.74C184.618 211.162 184.587 211.303 183.54 211.303H183.165V211.662C183.571 211.631 184.587 211.631 185.04 211.631C185.509 211.631 186.524 211.631 186.915 211.662V211.303H186.555C185.509 211.303 185.477 211.178 185.477 210.74V204.256ZM193.063 209.334C193.063 207.959 192.11 206.803 190.86 206.803C190.298 206.803 189.798 206.99 189.391 207.397V205.131C189.626 205.209 190.001 205.287 190.376 205.287C191.798 205.287 192.61 204.225 192.61 204.084C192.61 204.006 192.579 203.944 192.485 203.944C192.485 203.944 192.454 203.944 192.391 203.99C192.173 204.084 191.594 204.319 190.829 204.319C190.36 204.319 189.829 204.24 189.282 203.99C189.188 203.959 189.173 203.959 189.141 203.959C189.032 203.959 189.032 204.053 189.032 204.24V207.662C189.032 207.881 189.032 207.975 189.188 207.975C189.266 207.975 189.298 207.928 189.344 207.865C189.469 207.678 189.891 207.053 190.829 207.053C191.438 207.053 191.719 207.584 191.813 207.803C192.001 208.225 192.032 208.678 192.032 209.256C192.032 209.662 192.032 210.35 191.751 210.834C191.469 211.287 191.048 211.6 190.516 211.6C189.673 211.6 189.001 210.975 188.813 210.303C188.844 210.303 188.876 210.319 189.001 210.319C189.391 210.319 189.579 210.037 189.579 209.756C189.579 209.475 189.391 209.178 189.001 209.178C188.844 209.178 188.438 209.272 188.438 209.803C188.438 210.787 189.235 211.912 190.532 211.912C191.876 211.912 193.063 210.803 193.063 209.334Z" class="primary-fill"/>
<path d="M219.442 200.211C219.442 199.385 218.773 198.716 217.947 198.716C217.121 198.716 216.451 199.385 216.451 200.211C216.451 201.037 217.121 201.707 217.947 201.707C218.773 201.707 219.442 201.037 219.442 200.211Z" class="primary-fill"/>
<path d="M215.563 204.256C215.563 203.975 215.563 203.944 215.298 203.944C214.579 204.694 213.563 204.694 213.188 204.694V205.053C213.423 205.053 214.094 205.053 214.704 204.756V210.74C214.704 211.162 214.673 211.303 213.626 211.303H213.251V211.662C213.657 211.631 214.673 211.631 215.126 211.631C215.594 211.631 216.61 211.631 217.001 211.662V211.303H216.641C215.594 211.303 215.563 211.178 215.563 210.74V204.256ZM219.477 207.865V207.584C219.477 204.662 220.915 204.24 221.493 204.24C221.774 204.24 222.259 204.303 222.524 204.709C222.352 204.709 221.884 204.709 221.884 205.225C221.884 205.584 222.165 205.756 222.415 205.756C222.602 205.756 222.946 205.647 222.946 205.209C222.946 204.506 222.446 203.944 221.477 203.944C219.993 203.944 218.43 205.444 218.43 208.006C218.43 211.1 219.774 211.912 220.852 211.912C222.134 211.912 223.243 210.834 223.243 209.303C223.243 207.834 222.212 206.725 220.915 206.725C220.134 206.725 219.712 207.303 219.477 207.865ZM220.852 211.6C220.118 211.6 219.774 210.897 219.712 210.725C219.493 210.178 219.493 209.256 219.493 209.053C219.493 208.147 219.868 206.99 220.915 206.99C221.102 206.99 221.634 206.99 221.993 207.709C222.196 208.131 222.196 208.725 222.196 209.287C222.196 209.85 222.196 210.428 221.993 210.834C221.649 211.537 221.118 211.6 220.852 211.6Z" class="primary-fill"/>
<path d="M249.529 200.211C249.529 199.385 248.859 198.716 248.033 198.716C247.207 198.716 246.538 199.385 246.538 200.211C246.538 201.037 247.207 201.707 248.033 201.707C248.859 201.707 249.529 201.037 249.529 200.211Z" class="primary-fill"/>
<path d="M245.649 204.256C245.649 203.975 245.649 203.944 245.384 203.944C244.665 204.694 243.649 204.694 243.274 204.694V205.053C243.509 205.053 244.18 205.053 244.79 204.756V210.74C244.79 211.162 244.759 211.303 243.712 211.303H243.337V211.662C243.743 211.631 244.759 211.631 245.212 211.631C245.68 211.631 246.696 211.631 247.087 211.662V211.303H246.727C245.68 211.303 245.649 211.178 245.649 210.74V204.256ZM252.282 207.975V208.35C252.282 211.053 251.079 211.6 250.407 211.6C250.204 211.6 249.579 211.569 249.266 211.178C249.782 211.178 249.876 210.834 249.876 210.647C249.876 210.287 249.594 210.115 249.344 210.115C249.157 210.115 248.813 210.209 248.813 210.662C248.813 211.444 249.438 211.912 250.423 211.912C251.907 211.912 253.329 210.35 253.329 207.85C253.329 204.74 251.985 203.944 250.954 203.944C250.329 203.944 249.751 204.162 249.266 204.678C248.782 205.209 248.516 205.694 248.516 206.553C248.516 208.006 249.532 209.131 250.829 209.131C251.548 209.131 252.016 208.647 252.282 207.975ZM250.844 208.865C250.657 208.865 250.126 208.865 249.766 208.147C249.563 207.709 249.563 207.131 249.563 206.569C249.563 205.944 249.563 205.397 249.798 204.975C250.11 204.397 250.563 204.24 250.954 204.24C251.501 204.24 251.876 204.631 252.079 205.162C252.219 205.522 252.251 206.256 252.251 206.787C252.251 207.756 251.86 208.865 250.844 208.865Z" class="primary-fill"/>
<path d="M279.615 200.211C279.615 199.385 278.945 198.716 278.119 198.716C277.293 198.716 276.624 199.385 276.624 200.211C276.624 201.037 277.293 201.707 278.119 201.707C278.945 201.707 279.615 201.037 279.615 200.211Z" class="primary-fill"/>
<path d="M273.798 210.772L275.032 209.584C276.829 207.975 277.532 207.35 277.532 206.194C277.532 204.881 276.485 203.944 275.079 203.944C273.766 203.944 272.907 205.022 272.907 206.053C272.907 206.694 273.485 206.694 273.516 206.694C273.719 206.694 274.126 206.553 274.126 206.084C274.126 205.787 273.923 205.475 273.516 205.475C273.423 205.475 273.391 205.475 273.36 205.49C273.626 204.74 274.251 204.303 274.923 204.303C275.969 204.303 276.469 205.24 276.469 206.194C276.469 207.131 275.891 208.037 275.251 208.756L273.032 211.24C272.907 211.365 272.907 211.381 272.907 211.662H277.204L277.532 209.647H277.235C277.173 209.99 277.094 210.506 276.985 210.678C276.907 210.772 276.141 210.772 275.876 210.772L273.798 210.772ZM281.477 207.584C282.43 207.272 283.102 206.459 283.102 205.553C283.102 204.6 282.071 203.944 280.962 203.944C279.79 203.944 278.915 204.647 278.915 205.522C278.915 205.912 279.165 206.131 279.509 206.131C279.868 206.131 280.102 205.881 280.102 205.537C280.102 204.959 279.555 204.959 279.384 204.959C279.743 204.397 280.509 204.24 280.915 204.24C281.399 204.24 282.024 204.49 282.024 205.537C282.024 205.678 282.009 206.35 281.712 206.85C281.352 207.412 280.962 207.444 280.68 207.459C280.587 207.475 280.305 207.49 280.227 207.49C280.134 207.506 280.055 207.522 280.055 207.631C280.055 207.756 280.134 207.756 280.337 207.756H280.837C281.79 207.756 282.212 208.553 282.212 209.678C282.212 211.256 281.415 211.6 280.915 211.6C280.415 211.6 279.54 211.397 279.134 210.709C279.54 210.772 279.899 210.522 279.899 210.069C279.899 209.662 279.587 209.428 279.259 209.428C278.977 209.428 278.602 209.584 278.602 210.1C278.602 211.147 279.68 211.912 280.946 211.912C282.352 211.912 283.415 210.865 283.415 209.678C283.415 208.74 282.68 207.834 281.477 207.584Z" class="primary-fill"/>
<path d="M339.787 200.211C339.787 199.385 339.117 198.716 338.291 198.716C337.465 198.716 336.796 199.385 336.796 200.211C336.796 201.037 337.465 201.707 338.291 201.707C339.117 201.707 339.787 201.037 339.787 200.211Z" class="primary-fill"/>
<path d="M335.86 207.584C336.813 207.272 337.485 206.459 337.485 205.553C337.485 204.6 336.454 203.944 335.344 203.944C334.173 203.944 333.298 204.647 333.298 205.522C333.298 205.912 333.548 206.131 333.891 206.131C334.251 206.131 334.485 205.881 334.485 205.537C334.485 204.959 333.938 204.959 333.766 204.959C334.126 204.397 334.891 204.24 335.298 204.24C335.782 204.24 336.407 204.49 336.407 205.537C336.407 205.678 336.391 206.35 336.094 206.85C335.735 207.412 335.344 207.444 335.063 207.459C334.969 207.475 334.688 207.49 334.61 207.49C334.516 207.506 334.438 207.522 334.438 207.631C334.438 207.756 334.516 207.756 334.719 207.756H335.219C336.173 207.756 336.594 208.553 336.594 209.678C336.594 211.256 335.798 211.6 335.298 211.6C334.798 211.6 333.923 211.397 333.516 210.709C333.923 210.772 334.282 210.522 334.282 210.069C334.282 209.662 333.969 209.428 333.641 209.428C333.36 209.428 332.985 209.584 332.985 210.1C332.985 211.147 334.063 211.912 335.329 211.912C336.735 211.912 337.798 210.865 337.798 209.678C337.798 208.74 337.063 207.834 335.86 207.584ZM341.696 204.256C341.696 203.975 341.696 203.944 341.43 203.944C340.712 204.694 339.696 204.694 339.321 204.694V205.053C339.555 205.053 340.227 205.053 340.837 204.756V210.74C340.837 211.162 340.805 211.303 339.759 211.303H339.384V211.662C339.79 211.631 340.805 211.631 341.259 211.631C341.727 211.631 342.743 211.631 343.134 211.662V211.303H342.774C341.727 211.303 341.696 211.178 341.696 210.74V204.256Z" class="primary-fill"/>
<path d="M369.873 200.211C369.873 199.385 369.204 198.716 368.378 198.716C367.552 198.716 366.882 199.385 366.882 200.211C366.882 201.037 367.552 201.707 368.378 201.707C369.204 201.707 369.873 201.037 369.873 200.211Z" class="primary-fill"/>
<path d="M365.993 209.756V210.756C365.993 211.178 365.962 211.303 365.118 211.303H364.868V211.662C365.337 211.631 365.946 211.631 366.431 211.631C366.915 211.631 367.524 211.631 368.009 211.662V211.303H367.759C366.899 211.303 366.884 211.178 366.884 210.756V209.756H368.04V209.397H366.884V204.131C366.884 203.897 366.884 203.819 366.696 203.819C366.587 203.819 366.556 203.819 366.462 203.959L362.915 209.397V209.756H365.993ZM366.056 209.397H363.228L366.056 205.069V209.397ZM369.845 210.772L371.079 209.584C372.876 207.975 373.579 207.35 373.579 206.194C373.579 204.881 372.532 203.944 371.126 203.944C369.813 203.944 368.954 205.022 368.954 206.053C368.954 206.694 369.532 206.694 369.563 206.694C369.767 206.694 370.173 206.553 370.173 206.084C370.173 205.787 369.97 205.475 369.563 205.475C369.47 205.475 369.438 205.475 369.407 205.49C369.673 204.74 370.298 204.303 370.97 204.303C372.017 204.303 372.517 205.24 372.517 206.194C372.517 207.131 371.938 208.037 371.298 208.756L369.079 211.24C368.954 211.365 368.954 211.381 368.954 211.662H373.251L373.579 209.647H373.282C373.22 209.99 373.142 210.506 373.032 210.678C372.954 210.772 372.188 210.772 371.923 210.772H369.845Z" class="primary-fill"/>
<path d="M399.959 200.211C399.959 199.385 399.29 198.716 398.464 198.716C397.638 198.716 396.968 199.385 396.968 200.211C396.968 201.037 397.638 201.707 398.464 201.707C399.29 201.707 399.959 201.037 399.959 200.211Z" class="primary-fill"/>
<path d="M396.079 209.756V210.756C396.079 211.178 396.048 211.303 395.204 211.303H394.954V211.662C395.423 211.631 396.032 211.631 396.517 211.631C397.001 211.631 397.61 211.631 398.095 211.662V211.303H397.845C396.985 211.303 396.97 211.178 396.97 210.756V209.756H398.126V209.397H396.97V204.131C396.97 203.897 396.97 203.819 396.782 203.819C396.673 203.819 396.642 203.819 396.548 203.959L393.001 209.397V209.756H396.079ZM396.142 209.397H393.313L396.142 205.069V209.397ZM401.821 207.584C402.774 207.272 403.446 206.459 403.446 205.553C403.446 204.6 402.415 203.944 401.306 203.944C400.134 203.944 399.259 204.647 399.259 205.522C399.259 205.912 399.509 206.131 399.853 206.131C400.212 206.131 400.446 205.881 400.446 205.537C400.446 204.959 399.899 204.959 399.728 204.959C400.087 204.397 400.853 204.24 401.259 204.24C401.743 204.24 402.368 204.49 402.368 205.537C402.368 205.678 402.353 206.35 402.056 206.85C401.696 207.412 401.306 207.444 401.024 207.459C400.931 207.475 400.649 207.49 400.571 207.49C400.478 207.506 400.399 207.522 400.399 207.631C400.399 207.756 400.478 207.756 400.681 207.756H401.181C402.134 207.756 402.556 208.553 402.556 209.678C402.556 211.256 401.759 211.6 401.259 211.6C400.759 211.6 399.884 211.397 399.478 210.709C399.884 210.772 400.243 210.522 400.243 210.069C400.243 209.662 399.931 209.428 399.603 209.428C399.321 209.428 398.946 209.584 398.946 210.1C398.946 211.147 400.024 211.912 401.29 211.912C402.696 211.912 403.759 210.865 403.759 209.678C403.759 208.74 403.024 207.834 401.821 207.584Z" class="primary-fill"/>
<path d="M430.046 200.211C430.046 199.385 429.376 198.716 428.55 198.716C427.724 198.716 427.055 199.385 427.055 200.211C427.055 201.037 427.724 201.707 428.55 201.707C429.376 201.707 430.046 201.037 430.046 200.211Z" class="primary-fill"/>
<path d="M426.165 209.756V210.756C426.165 211.178 426.134 211.303 425.29 211.303H425.04V211.662C425.509 211.631 426.118 211.631 426.603 211.631C427.087 211.631 427.696 211.631 428.181 211.662V211.303H427.931C427.071 211.303 427.056 211.178 427.056 210.756V209.756H428.212V209.397H427.056V204.131C427.056 203.897 427.056 203.819 426.868 203.819C426.759 203.819 426.728 203.819 426.634 203.959L423.087 209.397V209.756H426.165ZM426.228 209.397H423.399L426.228 205.069V209.397ZM430.079 207.865V207.584C430.079 204.662 431.517 204.24 432.095 204.24C432.376 204.24 432.86 204.303 433.126 204.709C432.954 204.709 432.485 204.709 432.485 205.225C432.485 205.584 432.767 205.756 433.017 205.756C433.204 205.756 433.548 205.647 433.548 205.209C433.548 204.506 433.048 203.944 432.079 203.944C430.595 203.944 429.032 205.444 429.032 208.006C429.032 211.1 430.376 211.912 431.454 211.912C432.735 211.912 433.845 210.834 433.845 209.303C433.845 207.834 432.813 206.725 431.517 206.725C430.735 206.725 430.313 207.303 430.079 207.865ZM431.454 211.6C430.72 211.6 430.376 210.897 430.313 210.725C430.095 210.178 430.095 209.256 430.095 209.053C430.095 208.147 430.47 206.99 431.517 206.99C431.704 206.99 432.235 206.99 432.595 207.709C432.798 208.131 432.798 208.725 432.798 209.287C432.798 209.85 432.798 210.428 432.595 210.834C432.251 211.537 431.72 211.6 431.454 211.6Z" class="primary-fill"/>
<path d="M460.132 200.211C460.132 199.385 459.462 198.716 458.636 198.716C457.81 198.716 457.141 199.385 457.141 200.211C457.141 201.037 457.81 201.707 458.636 201.707C459.462 201.707 460.132 201.037 460.132 200.211Z" class="primary-fill"/>
<path d="M456.251 209.756V210.756C456.251 211.178 456.22 211.303 455.376 211.303H455.126V211.662C455.595 211.631 456.204 211.631 456.688 211.631C457.173 211.631 457.782 211.631 458.267 211.662V211.303H458.017C457.157 211.303 457.142 211.178 457.142 210.756V209.756H458.298V209.397H457.142V204.131C457.142 203.897 457.142 203.819 456.954 203.819C456.845 203.819 456.813 203.819 456.72 203.959L453.173 209.397V209.756H456.251ZM456.313 209.397H453.485L456.313 205.069V209.397ZM464.149 204.615C464.243 204.475 464.243 204.444 464.243 204.209H461.431C460.024 204.209 459.993 204.053 459.946 203.834H459.665L459.274 206.225H459.571C459.603 206.037 459.712 205.303 459.868 205.162C459.946 205.1 460.853 205.1 460.993 205.1H463.399C463.259 205.287 462.353 206.537 462.103 206.928C461.056 208.49 460.665 210.1 460.665 211.287C460.665 211.397 460.665 211.912 461.212 211.912C461.743 211.912 461.743 211.397 461.743 211.287V210.694C461.743 210.053 461.774 209.412 461.868 208.787C461.915 208.522 462.071 207.522 462.587 206.819L464.149 204.615Z" class="primary-fill"/>
<path d="M490.218 200.211C490.218 199.385 489.548 198.716 488.722 198.716C487.896 198.716 487.227 199.385 487.227 200.211C487.227 201.037 487.896 201.707 488.722 201.707C489.548 201.707 490.218 201.037 490.218 200.211Z" class="primary-fill"/>
<path d="M486.337 209.756V210.756C486.337 211.178 486.306 211.303 485.462 211.303H485.212V211.662C485.681 211.631 486.29 211.631 486.774 211.631C487.259 211.631 487.868 211.631 488.353 211.662V211.303H488.103C487.243 211.303 487.228 211.178 487.228 210.756V209.756H488.384V209.397H487.228V204.131C487.228 203.897 487.228 203.819 487.04 203.819C486.931 203.819 486.899 203.819 486.806 203.959L483.259 209.397V209.756H486.337ZM486.399 209.397H483.571L486.399 205.069V209.397ZM490.61 206.365C490.079 206.022 490.032 205.631 490.032 205.428C490.032 204.725 490.782 204.24 491.61 204.24C492.454 204.24 493.188 204.85 493.188 205.678C493.188 206.334 492.735 206.897 492.048 207.303L490.61 206.365ZM492.298 207.475C493.126 207.037 493.704 206.444 493.704 205.678C493.704 204.615 492.673 203.944 491.61 203.944C490.454 203.944 489.517 204.803 489.517 205.881C489.517 206.1 489.548 206.615 490.032 207.162C490.157 207.303 490.579 207.584 490.876 207.787C490.204 208.115 489.204 208.772 489.204 209.912C489.204 211.147 490.392 211.912 491.61 211.912C492.907 211.912 494.017 210.959 494.017 209.725C494.017 209.303 493.876 208.772 493.438 208.287C493.22 208.053 493.032 207.928 492.298 207.475ZM491.142 207.959L492.563 208.865C492.892 209.084 493.438 209.428 493.438 210.131C493.438 210.99 492.563 211.6 491.61 211.6C490.626 211.6 489.782 210.881 489.782 209.912C489.782 209.24 490.157 208.506 491.142 207.959Z" class="primary-fill"/>
<path d="M520.304 200.211C520.304 199.385 519.634 198.716 518.809 198.716C517.983 198.716 517.313 199.385 517.313 200.211C517.313 201.037 517.983 201.707 518.809 201.707C519.634 201.707 520.304 201.037 520.304 200.211Z" class="primary-fill"/>
<path d="M518.22 209.334C518.22 207.959 517.267 206.803 516.017 206.803C515.454 206.803 514.954 206.99 514.548 207.397V205.131C514.782 205.209 515.157 205.287 515.532 205.287C516.954 205.287 517.767 204.225 517.767 204.084C517.767 204.006 517.735 203.944 517.642 203.944C517.642 203.944 517.61 203.944 517.548 203.99C517.329 204.084 516.751 204.319 515.985 204.319C515.517 204.319 514.985 204.24 514.438 203.99C514.345 203.959 514.329 203.959 514.298 203.959C514.188 203.959 514.188 204.053 514.188 204.24V207.662C514.188 207.881 514.188 207.975 514.345 207.975C514.423 207.975 514.454 207.928 514.501 207.865C514.626 207.678 515.048 207.053 515.985 207.053C516.595 207.053 516.876 207.584 516.97 207.803C517.157 208.225 517.188 208.678 517.188 209.256C517.188 209.662 517.188 210.35 516.907 210.834C516.626 211.287 516.204 211.6 515.673 211.6C514.829 211.6 514.157 210.975 513.97 210.303C514.001 210.303 514.032 210.319 514.157 210.319C514.548 210.319 514.735 210.037 514.735 209.756C514.735 209.475 514.548 209.178 514.157 209.178C514.001 209.178 513.595 209.272 513.595 209.803C513.595 210.787 514.392 211.912 515.688 211.912C517.032 211.912 518.22 210.803 518.22 209.334ZM524.009 209.334C524.009 207.959 523.056 206.803 521.806 206.803C521.243 206.803 520.743 206.99 520.337 207.397V205.131C520.571 205.209 520.946 205.287 521.321 205.287C522.743 205.287 523.556 204.225 523.556 204.084C523.556 204.006 523.524 203.944 523.431 203.944C523.431 203.944 523.399 203.944 523.337 203.99C523.118 204.084 522.54 204.319 521.774 204.319C521.306 204.319 520.774 204.24 520.228 203.99C520.134 203.959 520.118 203.959 520.087 203.959C519.978 203.959 519.978 204.053 519.978 204.24V207.662C519.978 207.881 519.978 207.975 520.134 207.975C520.212 207.975 520.243 207.928 520.29 207.865C520.415 207.678 520.837 207.053 521.774 207.053C522.384 207.053 522.665 207.584 522.759 207.803C522.946 208.225 522.978 208.678 522.978 209.256C522.978 209.662 522.978 210.35 522.696 210.834C522.415 211.287 521.993 211.6 521.462 211.6C520.618 211.6 519.946 210.975 519.759 210.303C519.79 210.303 519.821 210.319 519.946 210.319C520.337 210.319 520.524 210.037 520.524 209.756C520.524 209.475 520.337 209.178 519.946 209.178C519.79 209.178 519.384 209.272 519.384 209.803C519.384 210.787 520.181 211.912 521.478 211.912C522.821 211.912 524.009 210.803 524.009 209.334Z" class="primary-fill"/>
<path d="M21.7188 142.71L7.75757 198.555" class="primary-stroke" stroke-width="0.845915" stroke-miterlimit="10"/>
<path d="M23.0544 142.71L37.0158 198.555" class="primary-stroke" stroke-width="0.845915" stroke-miterlimit="10"/>
<path d="M81.8912 142.71L67.9299 198.555" class="primary-stroke" stroke-width="0.845915" stroke-miterlimit="10"/>
<path d="M83.2268 142.71L97.188 198.555" class="primary-stroke" stroke-width="0.845915" stroke-miterlimit="10"/>
<path d="M142.064 142.71L128.102 198.555" class="primary-stroke" stroke-width="0.845915" stroke-miterlimit="10"/>
<path d="M143.399 142.71L157.36 198.555" class="primary-stroke" stroke-width="0.845915" stroke-miterlimit="10"/>
<path d="M202.236 142.71L188.275 198.555" class="primary-stroke" stroke-width="0.845915" stroke-miterlimit="10"/>
<path d="M203.572 142.71L217.533 198.555" class="primary-stroke" stroke-width="0.845915" stroke-miterlimit="10"/>
<path d="M262.408 142.71L248.447 198.555" class="primary-stroke" stroke-width="0.845915" stroke-miterlimit="10"/>
<path d="M263.744 142.71L277.705 198.555" class="primary-stroke" stroke-width="0.845915" stroke-miterlimit="10"/>
<path d="M352.667 142.71L338.706 198.555" class="primary-stroke" stroke-width="0.845915" stroke-miterlimit="10"/>
<path d="M354.002 142.71L367.964 198.555" class="primary-stroke" stroke-width="0.845915" stroke-miterlimit="10"/>
<path d="M427.318 142.502L399.227 198.685" class="primary-stroke" stroke-width="0.845915" stroke-miterlimit="10"/>
<path d="M428.55 142.793V198.504" class="primary-stroke" stroke-width="0.845915" stroke-miterlimit="10"/>
<path d="M429.781 142.502L457.873 198.685" class="primary-stroke" stroke-width="0.845915" stroke-miterlimit="10"/>
<path d="M503.098 142.71L489.136 198.555" class="primary-stroke" stroke-width="0.845915" stroke-miterlimit="10"/>
<path d="M504.433 142.71L518.394 198.555" class="primary-stroke" stroke-width="0.845915" stroke-miterlimit="10"/>
<path d="M328.432 215.737C329.225 217.323 331.075 218.38 333.719 218.38H348.048C350.691 218.38 352.542 219.438 353.335 221.024C354.128 219.438 355.978 218.38 358.622 218.38H372.951C375.594 218.38 377.445 217.323 378.238 215.737" stroke="#66BB6A" stroke-width="0.845915" stroke-miterlimit="10"/>
<path d="M349.247 225.889C349.372 225.826 349.466 225.764 349.466 225.639C349.466 225.498 349.372 225.405 349.231 225.405C349.185 225.405 349.075 225.451 349.028 225.467L342.622 228.498C342.435 228.576 342.403 228.67 342.403 228.764C342.403 228.858 342.466 228.936 342.622 229.014L349.028 232.03C349.185 232.108 349.2 232.108 349.231 232.108C349.372 232.108 349.466 231.998 349.466 231.873C349.466 231.764 349.419 231.701 349.231 231.608L343.169 228.764L349.247 225.889ZM349.06 234.358C349.263 234.358 349.466 234.358 349.466 234.123C349.466 233.889 349.231 233.889 349.06 233.889H342.81C342.638 233.889 342.403 233.889 342.403 234.123C342.403 234.358 342.606 234.358 342.794 234.358H349.06Z" fill="#66BB6A"/>
<path d="M357.06 230.858V231.858C357.06 232.28 357.028 232.405 356.185 232.405H355.935V232.764C356.403 232.733 357.013 232.733 357.497 232.733C357.981 232.733 358.591 232.733 359.075 232.764V232.405H358.825C357.966 232.405 357.95 232.28 357.95 231.858V230.858H359.106V230.498H357.95V225.233C357.95 224.998 357.95 224.92 357.763 224.92C357.653 224.92 357.622 224.92 357.528 225.061L353.981 230.498V230.858H357.06ZM357.122 230.498H354.294L357.122 226.17L357.122 230.498ZM360.911 231.873L362.146 230.686C363.942 229.076 364.646 228.451 364.646 227.295C364.646 225.983 363.599 225.045 362.192 225.045C360.88 225.045 360.021 226.123 360.021 227.155C360.021 227.795 360.599 227.795 360.63 227.795C360.833 227.795 361.239 227.655 361.239 227.186C361.239 226.889 361.036 226.576 360.63 226.576C360.536 226.576 360.505 226.576 360.474 226.592C360.739 225.842 361.364 225.405 362.036 225.405C363.083 225.405 363.583 226.342 363.583 227.295C363.583 228.233 363.005 229.139 362.364 229.858L360.146 232.342C360.021 232.467 360.021 232.483 360.021 232.764H364.317L364.646 230.748H364.349C364.286 231.092 364.208 231.608 364.099 231.78C364.021 231.873 363.255 231.873 362.989 231.873L360.911 231.873Z" fill="#66BB6A"/>
<path d="M388.604 215.737C389.397 217.323 391.248 218.38 393.891 218.38H423.263C425.907 218.38 427.757 219.438 428.55 221.024C429.343 219.438 431.194 218.38 433.837 218.38H463.209C465.853 218.38 467.703 217.323 468.496 215.737" stroke="#66BB6A" stroke-width="0.845915" stroke-miterlimit="10"/>
<path d="M409.989 230.123C410.114 230.061 410.208 230.014 410.208 229.873C410.208 229.733 410.114 229.67 409.989 229.608L403.583 226.592C403.427 226.514 403.411 226.514 403.364 226.514C403.239 226.514 403.146 226.623 403.146 226.748C403.146 226.842 403.192 226.92 403.364 226.998L409.442 229.873L403.364 232.748C403.192 232.826 403.146 232.889 403.146 232.998C403.146 233.123 403.239 233.233 403.364 233.233C403.411 233.233 403.427 233.233 403.583 233.139L409.989 230.123Z" fill="#66BB6A"/>
<path d="M417.802 230.858V231.858C417.802 232.28 417.771 232.405 416.927 232.405H416.677V232.764C417.146 232.733 417.755 232.733 418.239 232.733C418.724 232.733 419.333 232.733 419.817 232.764V232.405H419.567C418.708 232.405 418.692 232.28 418.692 231.858V230.858H419.849V230.498H418.692V225.233C418.692 224.998 418.692 224.92 418.505 224.92C418.396 224.92 418.364 224.92 418.271 225.061L414.724 230.498V230.858H417.802ZM417.864 230.498H415.036L417.864 226.17V230.498ZM421.653 231.873L422.888 230.686C424.685 229.076 425.388 228.451 425.388 227.295C425.388 225.983 424.341 225.045 422.935 225.045C421.622 225.045 420.763 226.123 420.763 227.155C420.763 227.795 421.341 227.795 421.372 227.795C421.575 227.795 421.981 227.655 421.981 227.186C421.981 226.889 421.778 226.576 421.372 226.576C421.278 226.576 421.247 226.576 421.216 226.592C421.481 225.842 422.106 225.405 422.778 225.405C423.825 225.405 424.325 226.342 424.325 227.295C424.325 228.233 423.747 229.139 423.106 229.858L420.888 232.342C420.763 232.467 420.763 232.483 420.763 232.764H425.06L425.388 230.748H425.091C425.028 231.092 424.95 231.608 424.841 231.78C424.763 231.873 423.997 231.873 423.731 231.873L421.653 231.873Z" fill="#66BB6A"/>
<path d="M428.317 232.748C428.317 231.983 428.036 231.53 427.583 231.53C427.208 231.53 426.974 231.826 426.974 232.155C426.974 232.467 427.208 232.764 427.583 232.764C427.724 232.764 427.88 232.717 427.989 232.608C428.021 232.592 428.036 232.576 428.052 232.576C428.052 232.576 428.067 232.592 428.067 232.748C428.067 233.608 427.661 234.311 427.286 234.686C427.161 234.811 427.161 234.842 427.161 234.873C427.161 234.951 427.208 234.998 427.271 234.998C427.396 234.998 428.317 234.108 428.317 232.748Z" fill="#66BB6A"/>
<path d="M438.935 225.889C439.06 225.826 439.153 225.764 439.153 225.639C439.153 225.498 439.06 225.405 438.919 225.405C438.872 225.405 438.763 225.451 438.716 225.467L432.31 228.498C432.122 228.576 432.091 228.67 432.091 228.764C432.091 228.858 432.153 228.936 432.31 229.014L438.716 232.03C438.872 232.108 438.888 232.108 438.919 232.108C439.06 232.108 439.153 231.998 439.153 231.873C439.153 231.764 439.106 231.701 438.919 231.608L432.856 228.764L438.935 225.889ZM438.747 234.358C438.95 234.358 439.153 234.358 439.153 234.123C439.153 233.889 438.919 233.889 438.747 233.889H432.497C432.325 233.889 432.091 233.889 432.091 234.123C432.091 234.358 432.294 234.358 432.481 234.358H438.747Z" fill="#66BB6A"/>
<path d="M446.751 230.858V231.858C446.751 232.28 446.72 232.405 445.876 232.405H445.626V232.764C446.095 232.733 446.704 232.733 447.188 232.733C447.673 232.733 448.282 232.733 448.767 232.764V232.405H448.517C447.657 232.405 447.642 232.28 447.642 231.858V230.858H448.798V230.498H447.642V225.233C447.642 224.998 447.642 224.92 447.454 224.92C447.345 224.92 447.313 224.92 447.22 225.061L443.673 230.498V230.858H446.751ZM446.813 230.498H443.985L446.813 226.17V230.498ZM454.649 225.717C454.743 225.576 454.743 225.545 454.743 225.311H451.931C450.524 225.311 450.493 225.155 450.446 224.936H450.165L449.774 227.326H450.071C450.103 227.139 450.212 226.405 450.368 226.264C450.446 226.201 451.353 226.201 451.493 226.201H453.899C453.759 226.389 452.853 227.639 452.603 228.03C451.556 229.592 451.165 231.201 451.165 232.389C451.165 232.498 451.165 233.014 451.712 233.014C452.243 233.014 452.243 232.498 452.243 232.389V231.795C452.243 231.155 452.274 230.514 452.368 229.889C452.415 229.623 452.571 228.623 453.087 227.92L454.649 225.717Z" fill="#66BB6A"/>
<path d="M478.862 215.737C479.655 217.323 481.506 218.38 484.149 218.38H498.478C501.122 218.38 502.972 219.438 503.765 221.024C504.558 219.438 506.409 218.38 509.052 218.38H523.381C526.025 218.38 527.875 217.323 528.668 215.737" stroke="#66BB6A" stroke-width="0.845915" stroke-miterlimit="10"/>
<path d="M499.673 230.123C499.798 230.061 499.892 230.014 499.892 229.873C499.892 229.733 499.798 229.67 499.673 229.608L493.267 226.592C493.11 226.514 493.095 226.514 493.048 226.514C492.923 226.514 492.829 226.623 492.829 226.748C492.829 226.842 492.876 226.92 493.048 226.998L499.126 229.873L493.048 232.748C492.876 232.826 492.829 232.889 492.829 232.998C492.829 233.123 492.923 233.233 493.048 233.233C493.095 233.233 493.11 233.233 493.267 233.139L499.673 230.123Z" fill="#66BB6A"/>
<path d="M507.489 230.858V231.858C507.489 232.28 507.458 232.405 506.614 232.405H506.364V232.764C506.833 232.733 507.442 232.733 507.927 232.733C508.411 232.733 509.021 232.733 509.505 232.764V232.405H509.255C508.396 232.405 508.38 232.28 508.38 231.858V230.858H509.536V230.498H508.38V225.233C508.38 224.998 508.38 224.92 508.192 224.92C508.083 224.92 508.052 224.92 507.958 225.061L504.411 230.498V230.858H507.489ZM507.552 230.498H504.724L507.552 226.17L507.552 230.498ZM515.388 225.717C515.481 225.576 515.481 225.545 515.481 225.311H512.669C511.263 225.311 511.231 225.155 511.185 224.936H510.903L510.513 227.326H510.81C510.841 227.139 510.95 226.405 511.106 226.264C511.185 226.201 512.091 226.201 512.231 226.201H514.638C514.497 226.389 513.591 227.639 513.341 228.03C512.294 229.592 511.903 231.201 511.903 232.389C511.903 232.498 511.903 233.014 512.45 233.014C512.981 233.014 512.981 232.498 512.981 232.389V231.795C512.981 231.155 513.013 230.514 513.106 229.889C513.153 229.623 513.31 228.623 513.825 227.92L515.388 225.717Z" fill="#66BB6A"/>
<path d="M0.378418 236.885C1.17136 238.471 3.02185 239.528 5.66538 239.528H79.8073C82.4509 239.528 84.3013 240.586 85.0944 242.172C85.8874 240.586 87.7379 239.528 90.3814 239.528H164.523C167.167 239.528 169.017 238.471 169.81 236.885" stroke="#66BB6A" stroke-width="0.845915" stroke-miterlimit="10"/>
<path d="M81.0085 247.037C81.1335 246.975 81.2273 246.912 81.2273 246.787C81.2273 246.647 81.1335 246.553 80.9929 246.553C80.946 246.553 80.8367 246.6 80.7898 246.615L74.3835 249.647C74.196 249.725 74.1648 249.819 74.1648 249.912C74.1648 250.006 74.2273 250.084 74.3835 250.162L80.7898 253.178C80.946 253.256 80.9617 253.256 80.9929 253.256C81.1335 253.256 81.2273 253.147 81.2273 253.022C81.2273 252.912 81.1804 252.85 80.9929 252.756L74.9304 249.912L81.0085 247.037ZM80.821 255.506C81.0242 255.506 81.2273 255.506 81.2273 255.272C81.2273 255.037 80.9929 255.037 80.821 255.037H74.571C74.3992 255.037 74.1648 255.037 74.1648 255.272C74.1648 255.506 74.3679 255.506 74.5554 255.506H80.821Z" fill="#66BB6A"/>
<path d="M88.825 246.506C88.825 246.225 88.825 246.194 88.5593 246.194C87.8406 246.944 86.825 246.944 86.45 246.944V247.303C86.6843 247.303 87.3562 247.303 87.9656 247.006V252.99C87.9656 253.412 87.9343 253.553 86.8875 253.553H86.5125V253.912C86.9187 253.881 87.9343 253.881 88.3875 253.881C88.8562 253.881 89.8718 253.881 90.2625 253.912V253.553H89.9031C88.8562 253.553 88.825 253.428 88.825 252.99V246.506ZM94.5671 249.834C95.5203 249.522 96.1921 248.709 96.1921 247.803C96.1921 246.85 95.1609 246.194 94.0515 246.194C92.8796 246.194 92.0046 246.897 92.0046 247.772C92.0046 248.162 92.2546 248.381 92.5984 248.381C92.9578 248.381 93.1921 248.131 93.1921 247.787C93.1921 247.209 92.6453 247.209 92.4734 247.209C92.8328 246.647 93.5984 246.49 94.0046 246.49C94.489 246.49 95.114 246.74 95.114 247.787C95.114 247.928 95.0984 248.6 94.8015 249.1C94.4421 249.662 94.0515 249.694 93.7703 249.709C93.6765 249.725 93.3953 249.74 93.3171 249.74C93.2234 249.756 93.1453 249.772 93.1453 249.881C93.1453 250.006 93.2234 250.006 93.4265 250.006H93.9265C94.8796 250.006 95.3015 250.803 95.3015 251.928C95.3015 253.506 94.5046 253.85 94.0046 253.85C93.5046 253.85 92.6296 253.647 92.2234 252.959C92.6296 253.022 92.989 252.772 92.989 252.319C92.989 251.912 92.6765 251.678 92.3484 251.678C92.0671 251.678 91.6921 251.834 91.6921 252.35C91.6921 253.397 92.7703 254.162 94.0359 254.162C95.4421 254.162 96.5046 253.115 96.5046 251.928C96.5046 250.99 95.7703 250.084 94.5671 249.834Z" fill="#66BB6A"/>
<path d="M175.826 236.885C176.619 238.471 178.47 239.528 181.113 239.528H233.72C236.364 239.528 238.214 240.586 239.007 242.172C239.8 240.586 241.651 239.528 244.294 239.528H296.901C299.544 239.528 301.395 238.471 302.188 236.885" stroke="#66BB6A" stroke-width="0.845915" stroke-miterlimit="10"/>
<path d="M219.13 251.272C219.255 251.209 219.348 251.162 219.348 251.022C219.348 250.881 219.255 250.819 219.13 250.756L212.723 247.74C212.567 247.662 212.552 247.662 212.505 247.662C212.38 247.662 212.286 247.772 212.286 247.897C212.286 247.99 212.333 248.069 212.505 248.147L218.583 251.022L212.505 253.897C212.333 253.975 212.286 254.037 212.286 254.147C212.286 254.272 212.38 254.381 212.505 254.381C212.552 254.381 212.567 254.381 212.723 254.287L219.13 251.272Z" fill="#66BB6A"/>
<path d="M226.942 246.506C226.942 246.225 226.942 246.194 226.677 246.194C225.958 246.944 224.942 246.944 224.567 246.944V247.303C224.802 247.303 225.473 247.303 226.083 247.006V252.99C226.083 253.412 226.052 253.553 225.005 253.553H224.63V253.912C225.036 253.881 226.052 253.881 226.505 253.881C226.973 253.881 227.989 253.881 228.38 253.912V253.553H228.02C226.973 253.553 226.942 253.428 226.942 252.99V246.506ZM232.684 249.834C233.637 249.522 234.309 248.709 234.309 247.803C234.309 246.85 233.278 246.194 232.169 246.194C230.997 246.194 230.122 246.897 230.122 247.772C230.122 248.162 230.372 248.381 230.716 248.381C231.075 248.381 231.309 248.131 231.309 247.787C231.309 247.209 230.762 247.209 230.591 247.209C230.95 246.647 231.716 246.49 232.122 246.49C232.606 246.49 233.231 246.74 233.231 247.787C233.231 247.928 233.216 248.6 232.919 249.1C232.559 249.662 232.169 249.694 231.887 249.709C231.794 249.725 231.512 249.74 231.434 249.74C231.341 249.756 231.262 249.772 231.262 249.881C231.262 250.006 231.341 250.006 231.544 250.006H232.044C232.997 250.006 233.419 250.803 233.419 251.928C233.419 253.506 232.622 253.85 232.122 253.85C231.622 253.85 230.747 253.647 230.341 252.959C230.747 253.022 231.106 252.772 231.106 252.319C231.106 251.912 230.794 251.678 230.466 251.678C230.184 251.678 229.809 251.834 229.809 252.35C229.809 253.397 230.887 254.162 232.153 254.162C233.559 254.162 234.622 253.115 234.622 251.928C234.622 250.99 233.887 250.084 232.684 249.834Z" fill="#66BB6A"/>
<path d="M237.645 252.709C237.645 252.412 237.63 252.397 237.333 252.397H236.427C236.13 252.397 236.114 252.412 236.114 252.709V253.6C236.114 253.897 236.13 253.912 236.52 253.912C236.442 254.1 236.395 254.287 236.317 254.475C236.255 254.647 236.13 254.959 236.13 254.99C236.13 255.147 236.255 255.147 236.427 255.147H236.567C236.802 255.147 236.817 255.131 236.927 254.944C237.145 254.631 237.333 254.303 237.536 253.975C237.645 253.819 237.645 253.803 237.645 253.6V252.709Z" fill="#66BB6A"/>
<path d="M250.712 247.037C250.837 246.975 250.93 246.912 250.93 246.787C250.93 246.647 250.837 246.553 250.696 246.553C250.649 246.553 250.54 246.6 250.493 246.615L244.087 249.647C243.899 249.725 243.868 249.819 243.868 249.912C243.868 250.006 243.93 250.084 244.087 250.162L250.493 253.178C250.649 253.256 250.665 253.256 250.696 253.256C250.837 253.256 250.93 253.147 250.93 253.022C250.93 252.912 250.884 252.85 250.696 252.756L244.634 249.912L250.712 247.037ZM250.524 255.506C250.727 255.506 250.93 255.506 250.93 255.272C250.93 255.037 250.696 255.037 250.524 255.037H244.274C244.102 255.037 243.868 255.037 243.868 255.272C243.868 255.506 244.071 255.506 244.259 255.506H250.524Z" fill="#66BB6A"/>
<path d="M256.591 253.022L257.825 251.834C259.622 250.225 260.325 249.6 260.325 248.444C260.325 247.131 259.278 246.194 257.872 246.194C256.559 246.194 255.7 247.272 255.7 248.303C255.7 248.944 256.278 248.944 256.309 248.944C256.512 248.944 256.919 248.803 256.919 248.334C256.919 248.037 256.716 247.725 256.309 247.725C256.216 247.725 256.184 247.725 256.153 247.74C256.419 246.99 257.044 246.553 257.716 246.553C258.762 246.553 259.262 247.49 259.262 248.444C259.262 249.381 258.684 250.287 258.044 251.006L255.825 253.49C255.7 253.615 255.7 253.631 255.7 253.912H259.997L260.325 251.897H260.028C259.966 252.24 259.887 252.756 259.778 252.928C259.7 253.022 258.934 253.022 258.669 253.022H256.591ZM266.114 251.584C266.114 250.209 265.161 249.053 263.911 249.053C263.348 249.053 262.848 249.24 262.442 249.647V247.381C262.677 247.459 263.052 247.537 263.427 247.537C264.848 247.537 265.661 246.475 265.661 246.334C265.661 246.256 265.63 246.194 265.536 246.194C265.536 246.194 265.505 246.194 265.442 246.24C265.223 246.334 264.645 246.569 263.88 246.569C263.411 246.569 262.88 246.49 262.333 246.24C262.239 246.209 262.223 246.209 262.192 246.209C262.083 246.209 262.083 246.303 262.083 246.49V249.912C262.083 250.131 262.083 250.225 262.239 250.225C262.317 250.225 262.348 250.178 262.395 250.115C262.52 249.928 262.942 249.303 263.88 249.303C264.489 249.303 264.77 249.834 264.864 250.053C265.052 250.475 265.083 250.928 265.083 251.506C265.083 251.912 265.083 252.6 264.802 253.084C264.52 253.537 264.098 253.85 263.567 253.85C262.723 253.85 262.052 253.225 261.864 252.553C261.895 252.553 261.927 252.569 262.052 252.569C262.442 252.569 262.63 252.287 262.63 252.006C262.63 251.725 262.442 251.428 262.052 251.428C261.895 251.428 261.489 251.522 261.489 252.053C261.489 253.037 262.286 254.162 263.583 254.162C264.927 254.162 266.114 253.053 266.114 251.584Z" fill="#66BB6A"/>
<path d="M314.223 236.885C315.016 238.471 316.866 239.528 319.51 239.528H416.16C418.803 239.528 420.654 240.586 421.447 242.172C422.24 240.586 424.09 239.528 426.734 239.528H523.384C526.028 239.528 527.878 238.471 528.671 236.885" stroke="#66BB6A" stroke-width="0.845915" stroke-miterlimit="10"/>
<path d="M417.356 251.272C417.481 251.209 417.575 251.162 417.575 251.022C417.575 250.881 417.481 250.819 417.356 250.756L410.95 247.74C410.794 247.662 410.778 247.662 410.731 247.662C410.606 247.662 410.513 247.772 410.513 247.897C410.513 247.99 410.56 248.069 410.731 248.147L416.81 251.022L410.731 253.897C410.56 253.975 410.513 254.037 410.513 254.147C410.513 254.272 410.606 254.381 410.731 254.381C410.778 254.381 410.794 254.381 410.95 254.287L417.356 251.272Z" fill="#66BB6A"/>
<path d="M423.235 253.022L424.47 251.834C426.267 250.225 426.97 249.6 426.97 248.444C426.97 247.131 425.923 246.194 424.517 246.194C423.204 246.194 422.345 247.272 422.345 248.303C422.345 248.944 422.923 248.944 422.954 248.944C423.157 248.944 423.563 248.803 423.563 248.334C423.563 248.037 423.36 247.725 422.954 247.725C422.86 247.725 422.829 247.725 422.798 247.74C423.063 246.99 423.688 246.553 424.36 246.553C425.407 246.553 425.907 247.49 425.907 248.444C425.907 249.381 425.329 250.287 424.688 251.006L422.47 253.49C422.345 253.615 422.345 253.631 422.345 253.912H426.642L426.97 251.897H426.673C426.61 252.24 426.532 252.756 426.423 252.928C426.345 253.022 425.579 253.022 425.313 253.022H423.235ZM432.759 251.584C432.759 250.209 431.806 249.053 430.556 249.053C429.993 249.053 429.493 249.24 429.087 249.647V247.381C429.321 247.459 429.696 247.537 430.071 247.537C431.493 247.537 432.306 246.475 432.306 246.334C432.306 246.256 432.274 246.194 432.181 246.194C432.181 246.194 432.149 246.194 432.087 246.24C431.868 246.334 431.29 246.569 430.524 246.569C430.056 246.569 429.524 246.49 428.978 246.24C428.884 246.209 428.868 246.209 428.837 246.209C428.728 246.209 428.728 246.303 428.728 246.49V249.912C428.728 250.131 428.728 250.225 428.884 250.225C428.962 250.225 428.993 250.178 429.04 250.115C429.165 249.928 429.587 249.303 430.524 249.303C431.134 249.303 431.415 249.834 431.509 250.053C431.696 250.475 431.728 250.928 431.728 251.506C431.728 251.912 431.728 252.6 431.446 253.084C431.165 253.537 430.743 253.85 430.212 253.85C429.368 253.85 428.696 253.225 428.509 252.553C428.54 252.553 428.571 252.569 428.696 252.569C429.087 252.569 429.274 252.287 429.274 252.006C429.274 251.725 429.087 251.428 428.696 251.428C428.54 251.428 428.134 251.522 428.134 252.053C428.134 253.037 428.931 254.162 430.228 254.162C431.571 254.162 432.759 253.053 432.759 251.584Z" fill="#66BB6A"/>
</g>
<defs>
<clipPath id="clip0_503_2">
<rect width="529.049" height="255.506" fill="white"/>
</clipPath>
</defs>
</svg>
